HIERARCHY
ROOT Hips
{
	OFFSET 0.000000 0.000000 0.000000
	CHANNELS 6 Xposition Yposition Zposition Zrotation Yrotation Xrotation 
	JOINT LowerBack
	{
		OFFSET 0.000000 0.000000 0.000000
		CHANNELS 3 Zrotation Yrotation Xrotation
		JOINT Spine
		{
			OFFSET 0.028270 2.035590 -0.193380
			CHANNELS 3 Zrotation Yrotation Xrotation
			JOINT Spine1
			{
				OFFSET 0.056720 2.048850 -0.042750
				CHANNELS 3 Zrotation Yrotation Xrotation
				JOINT Neck
				{
					OFFSET 0.000000 0.000000 0.000000
					CHANNELS 3 Zrotation Yrotation Xrotation
					JOINT Neck1
					{
						OFFSET -0.054170 1.746240 0.172020
						CHANNELS 3 Zrotation Yrotation Xrotation
						JOINT Head
						{
							OFFSET 0.104070 1.761360 -0.123970
							CHANNELS 3 Zrotation Yrotation Xrotation
							End Site
							{
								OFFSET 0.000000 0.000000 0.000000
							}
						}
					}
				}
				JOINT LeftShoulder
				{
					OFFSET 0.000000 0.000000 0.000000
					CHANNELS 3 Zrotation Yrotation Xrotation
					JOINT LeftArm
					{
						OFFSET 3.362410 1.200890 -0.311210
						CHANNELS 3 Zrotation Yrotation Xrotation
						JOINT LeftForeArm
						{
							OFFSET 4.983000 -0.000000 -0.000000
							CHANNELS 3 Zrotation Yrotation Xrotation
							JOINT LeftHand
							{
								OFFSET 3.483560 -0.000000 -0.000000
								CHANNELS 3 Zrotation Yrotation Xrotation
								JOINT LeftFingerBase
								{
									OFFSET 0.000000 0.000000 0.000000
									CHANNELS 3 Zrotation Yrotation Xrotation
									JOINT LeftHandIndex1
									{
										OFFSET 0.715260 -0.000000 -0.000000
										CHANNELS 3 Zrotation Yrotation Xrotation
										End Site
										{
											OFFSET 0.000000 0.000000 0.000000
										}
									}
								}
								JOINT LThumb
								{
									OFFSET 0.000000 0.000000 0.000000
									CHANNELS 3 Zrotation Yrotation Xrotation
									End Site
									{
										OFFSET 0.000000 0.000000 0.000000
									}
								}
							}
						}
					}
				}
				JOINT RightShoulder
				{
					OFFSET 0.000000 0.000000 0.000000
					CHANNELS 3 Zrotation Yrotation Xrotation
					JOINT RightArm
					{
						OFFSET -3.136600 1.374050 -0.404650
						CHANNELS 3 Zrotation Yrotation Xrotation
						JOINT RightForeArm
						{
							OFFSET -5.241900 -0.000000 -0.000000
							CHANNELS 3 Zrotation Yrotation Xrotation
							JOINT RightHand
							{
								OFFSET -3.444170 -0.000000 -0.000000
								CHANNELS 3 Zrotation Yrotation Xrotation
								JOINT RightFingerBase
								{
									OFFSET 0.000000 0.000000 0.000000
									CHANNELS 3 Zrotation Yrotation Xrotation
									JOINT RightHandIndex1
									{
										OFFSET -0.622530 -0.000000 -0.000000
										CHANNELS 3 Zrotation Yrotation Xrotation
										End Site
										{
											OFFSET 0.000000 0.000000 0.000000
										}
									}
								}
								JOINT RThumb
								{
									OFFSET 0.000000 0.000000 0.000000
									CHANNELS 3 Zrotation Yrotation Xrotation
									End Site
									{
										OFFSET 0.000000 0.000000 0.000000
									}
								}
							}
						}
					}
				}
			}
		}
	}
}
}
MOTION
Frames: 12
Frame Time: 0.008333
6.866710 16.751195 4.384966 -175.035248 -85.062856 -162.032720 -8.896724 0.287507 3.798326 -2.992449 0.657605 -2.538874 -7.587894 0.502659 -0.483571 9.747333 3.345868 -1.752765 -4.353136 -0.361383 1.233648 0.000000 0.000000 0.000000 -4.070384 1.787639 3.484250 -61.748395 -2.037524 14.299983 -3.944458 -28.060619 -0.018109 -5.798995 12.905507 -0.644943 -0.092230 0.020247 -0.000000 0.000000 0.000000 0.000000 0.000000 0.000000 0.000000 19.301698 5.873059 1.150275 72.105981 27.168214 10.100695 2.508544 25.931366 0.011736 3.266363 6.085773 0.178826 0.007925 -0.177404 0.000000 0.000000 0.000000 0.000000 0.000000 0.000000 0.000000 
6.788240 16.771632 4.427008 -172.834553 -84.294286 -163.960956 -9.025949 0.350367 3.748277 -3.028317 0.721098 -2.564080 -7.612211 0.559768 -0.531526 9.524488 3.531647 -1.701419 -4.360926 -0.362133 1.241942 0.000000 0.000000 0.000000 -4.294067 1.484459 3.567841 -61.081280 -2.773619 14.615538 -4.052371 -26.787150 -0.018931 -6.054383 13.101460 -0.683436 -0.097143 0.025122 -0.000000 0.000000 0.000000 0.000000 0.000000 0.000000 0.000000 19.116292 6.056916 1.151864 72.830359 26.898689 10.507364 2.514388 25.537852 0.012376 3.759366 5.742575 0.194612 0.002924 -0.172717 0.000000 0.000000 0.000000 0.000000 0.000000 0.000000 0.000000 
6.712514 16.791571 4.469151 -170.760994 -83.544916 -165.777666 -9.099136 0.413319 3.715106 -3.053005 0.782519 -2.584671 -7.639999 0.615041 -0.574841 9.297749 3.727477 -1.650780 -4.373243 -0.363069 1.249680 0.000000 0.000000 0.000000 -4.529801 1.197187 3.652637 -60.385229 -3.584631 14.941198 -4.159581 -25.492754 -0.019749 -6.262658 13.285182 -0.716427 -0.102440 0.030766 -0.000000 0.000000 0.000000 0.000000 0.000000 0.000000 0.000000 18.946054 6.245778 1.158913 73.480090 26.653070 10.972919 2.526896 25.174784 0.013095 4.321217 5.361653 0.209296 -0.002533 -0.167258 0.000000 0.000000 0.000000 0.000000 0.000000 0.000000 0.000000 
6.639188 16.810954 4.510709 -168.918871 -82.843262 -167.380236 -9.135194 0.469182 3.702141 -3.070159 0.835507 -2.599629 -7.670687 0.662226 -0.614463 9.075914 3.923800 -1.599134 -4.389204 -0.364156 1.257299 0.000000 0.000000 0.000000 -4.759816 0.902561 3.738493 -59.669542 -4.453639 15.257785 -4.264600 -24.174205 -0.020571 -6.405113 13.460228 -0.741818 -0.108022 0.037131 -0.000000 0.000000 0.000000 0.000000 0.000000 0.000000 0.000000 18.797603 6.424823 1.171268 74.061736 26.436696 11.497467 2.544931 24.827817 0.013840 4.932270 4.962661 0.221580 -0.008296 -0.161173 0.000000 0.000000 0.000000 0.000000 0.000000 0.000000 0.000000 
6.568182 16.829914 4.551147 -167.318965 -82.207868 -168.765257 -9.148355 0.514399 3.715993 -3.082562 0.876971 -2.608087 -7.703735 0.698264 -0.653709 8.866286 4.118698 -1.542779 -4.407787 -0.365362 1.265789 0.000000 0.000000 0.000000 -4.969067 0.578332 3.825816 -58.946882 -5.358876 15.518851 -4.365415 -22.835751 -0.021427 -6.464890 13.642694 -0.758108 -0.113731 0.044205 -0.000000 0.000000 0.000000 0.000000 0.000000 0.000000 0.000000 18.674071 6.589933 1.188907 74.582500 26.243643 12.050245 2.566187 24.496710 0.014562 5.577075 4.555321 0.230562 -0.014310 -0.154638 0.000000 0.000000 0.000000 0.000000 0.000000 0.000000 0.000000 
6.499211 16.848491 4.590132 -165.939941 -81.651935 -169.953498 -9.148339 0.546653 3.753741 -3.092031 0.905038 -2.609421 -7.738326 0.721501 -0.688763 8.673098 4.301714 -1.484687 -4.427582 -0.366568 1.274458 0.000000 0.000000 0.000000 -5.147812 0.234476 3.912527 -58.224312 -6.322747 15.738947 -4.461616 -21.452261 -0.022321 -6.425487 13.823659 -0.762400 -0.119468 0.051954 -0.000000 0.000000 0.000000 0.000000 0.000000 0.000000 0.000000 18.574714 6.728493 1.209313 75.051346 26.084129 12.630881 2.590392 24.159591 0.015217 6.235559 4.162271 0.236045 -0.020354 -0.147815 0.000000 0.000000 0.000000 0.000000 0.000000 0.000000 0.000000 
6.432120 16.866824 4.627445 -164.743422 -81.182010 -170.985161 -9.141207 0.565306 3.816999 -3.099825 0.919298 -2.602075 -7.774406 0.731833 -0.715603 8.500242 4.463457 -1.428988 -4.447779 -0.367669 1.282167 0.000000 0.000000 0.000000 -5.291390 -0.109082 3.996733 -57.506230 -7.374907 15.919114 -4.552400 -20.008171 -0.023279 -6.272173 14.001528 -0.752395 -0.125105 0.060378 -0.000000 0.000000 0.000000 0.000000 0.000000 0.000000 0.000000 18.500880 6.830576 1.229170 75.476319 25.967612 13.225368 2.616011 23.805537 0.015758 6.882432 3.803970 0.238527 -0.026212 -0.140940 0.000000 0.000000 0.000000 0.000000 0.000000 0.000000 0.000000 
6.366699 16.885116 4.662927 -163.700130 -80.800933 -171.890987 -9.132253 0.571553 3.904834 -3.107132 0.921083 -2.588231 -7.811344 0.730273 -0.742319 8.350120 4.610713 -1.366368 -4.467250 -0.368712 1.291677 0.000000 0.000000 0.000000 -5.393489 -0.493399 4.078575 -56.803697 -8.457682 15.978661 -4.633085 -18.533723 -0.024337 -5.989492 14.193418 -0.726594 -0.130293 0.069377 -0.000000 0.000000 0.000000 0.000000 0.000000 0.000000 0.000000 18.449882 6.903613 1.250754 75.863178 25.875445 13.785857 2.640558 23.438970 0.016170 7.502060 3.478217 0.238209 -0.031818 -0.134217 0.000000 0.000000 0.000000 0.000000 0.000000 0.000000 0.000000 
6.302835 16.903432 4.696620 -162.762271 -80.505077 -172.715954 -9.120452 0.566994 4.010704 -3.113792 0.912048 -2.568983 -7.848904 0.718495 -0.767940 8.222687 4.741296 -1.297200 -4.484987 -0.369645 1.303120 0.000000 0.000000 0.000000 -5.455075 -0.910571 4.156062 -56.118961 -9.576950 15.912483 -4.701394 -17.027958 -0.025510 -5.563642 14.386733 -0.682098 -0.134830 0.078846 -0.000000 0.000000 0.000000 0.000000 0.000000 0.000000 0.000000 18.417551 6.946642 1.272384 76.218717 25.808238 14.295668 2.663228 23.050037 0.016441 8.075129 3.194739 0.235992 -0.036982 -0.127814 0.000000 0.000000 0.000000 0.000000 0.000000 0.000000 0.000000 
6.240232 16.921819 4.728587 -161.884097 -80.286770 -173.500568 -9.103185 0.553925 4.128607 -3.119373 0.894483 -2.545059 -7.887138 0.698856 -0.790295 8.117114 4.853145 -1.223669 -4.500321 -0.370414 1.316045 0.000000 0.000000 0.000000 -5.481495 -1.343590 4.227408 -55.449651 -10.747708 15.721584 -4.755419 -15.493706 -0.026824 -4.986566 14.567059 -0.616409 -0.138562 0.088656 -0.000000 0.000000 0.000000 0.000000 0.000000 0.000000 0.000000 18.400602 6.959687 1.292199 76.548324 25.768243 14.739883 2.683334 22.631720 0.016565 8.585591 2.957323 0.232576 -0.041553 -0.121847 0.000000 0.000000 0.000000 0.000000 0.000000 0.000000 0.000000 
6.178723 16.940300 4.758999 -161.022810 -80.134808 -174.282879 -9.076381 0.535029 4.251746 -3.123134 0.871033 -2.517885 -7.926145 0.673956 -0.809008 8.031609 4.947825 -1.146332 -4.512656 -0.370994 1.330490 0.000000 0.000000 0.000000 -5.480058 -1.781811 4.291397 -54.792892 -11.971257 15.402327 -4.792926 -13.945548 -0.028300 -4.254736 14.718013 -0.528126 -0.141357 0.098621 -0.000000 0.000000 0.000000 0.000000 0.000000 0.000000 0.000000 18.394599 6.947268 1.309238 76.856095 25.752938 15.102167 2.700307 22.182933 0.016554 9.022938 2.762406 0.228561 -0.045437 -0.116377 0.000000 0.000000 0.000000 0.000000 0.000000 0.000000 0.000000 
6.118258 16.958799 4.788039 -160.143112 -80.035999 -175.094687 -9.035698 0.513129 4.373103 -3.124228 0.844472 -2.489618 -7.965860 0.646379 -0.826145 7.963606 5.031741 -1.063404 -4.521400 -0.371390 1.347160 0.000000 0.000000 0.000000 -5.457726 -2.225135 4.347821 -54.145127 -13.231668 14.943748 -4.811585 -12.411121 -0.029958 -3.369270 14.822463 -0.416948 -0.143132 0.108509 -0.000000 0.000000 0.000000 0.000000 0.000000 0.000000 0.000000 18.393818 6.919536 1.323863 77.144185 25.754061 15.361001 2.713649 21.708902 0.016428 9.383587 2.597884 0.223748 -0.048615 -0.111407 0.000000 0.000000 0.000000 0.000000 0.000000 0.000000 0.000000 
